/* XPM */
static char * top_left_inactive_xpm[] = {
"2 30 4 1",
" 	c None",
".	c #CACACA s active_mid_1",
"+	c #E6E6E6 s active_hilight_1",
"@	c #EEEEEE s active_hilight_1",
" .",
"..",
".+",
".+",
".@",
".@",
".@",
".@",
".@",
".@",
".@",
".@",
".@",
".@",
".@",
".@",
".@",
".@",
".@",
".@",
".@",
".@",
".@",
".@",
".@",
".@",
".@",
".@",
".@",
".@"};
