/* XPM */
static char * top_right_inactive_xpm[] = {
"2 30 4 1",
" 	c None",
".	c #CACACA s active_shadow_2",
"+	c #E6E6E6 s active_mid_2",
"@	c #EEEEEE s active_mid_2",
". ",
"..",
"+.",
"+.",
"@.",
"@.",
"@.",
"@.",
"@.",
"@.",
"@.",
"@.",
"@.",
"@.",
"@.",
"@.",
"@.",
"@.",
"@.",
"@.",
"@.",
"@.",
"@.",
"@.",
"@.",
"@.",
"@.",
"@.",
"@.",
"@."};
